# xmcd CD database file
#
# Track frame offsets:
#	150
#	13943
#	29709
#	42720
#	56343
#	70799
#	84500
#	103699
#	118983
#	135200
#	149122
#	166205
#	180108
#
# Disc length: 2591 seconds
#
# Revision: 1
# Processed by: cddbd v1.5.2PL0 Copyright (c) Steve Scherf et al.
# Submitted via: CDex 1.70beta2
#
DISCID=b60a1d0d
DTITLE=Atlantis - Weil ich Dich lieb hab
DYEAR=2006
DGENRE=Schlager
TTITLE0=Weil Mein Herz Nicht Denken Kann
TTITLE1=Drei Finger Aufs Herz
TTITLE2=Weil Das Leben Super Ist
TTITLE3=Weine Nicht Um Ihn
TTITLE4=Schick Ihn Zur Hölle
TTITLE5=Das Licht Hinterm Horizont
TTITLE6=Engerl Fliag Mir Ned Davon
TTITLE7=Solang I Atmen Kann
TTITLE8=Hausverbot
TTITLE9=Weil Ich Dich Lieb Hab
TTITLE10=Yo Te Quiero Margarita
TTITLE11=Jetzt Ist Schluß
TTITLE12=Ich Will Sie Immernoch
EXTD=YEAR: 2006
EXTT0=
EXTT1=
EXTT2=
EXTT3=
EXTT4=
EXTT5=
EXTT6=
EXTT7=
EXTT8=
EXTT9=
EXTT10=
EXTT11=
EXTT12=
PLAYORDER=
